<?xml version="1.0" standalone="no"?>
<!DOCTYPE svg PUBLIC "-//W3C//DTD SVG 20010904//EN"
 "http://www.w3.org/TR/2001/REC-SVG-20010904/DTD/svg10.dtd">
<svg version="1.0" xmlns="http://www.w3.org/2000/svg"
 width="1500.000000pt" height="446.000000pt" viewBox="0 0 1500.000000 446.000000"
 preserveAspectRatio="xMidYMid meet">

<g transform="translate(0.000000,446.000000) scale(0.100000,-0.100000)"
fill="#000000" stroke="none">
<path d="M10485 3418 c-41 -22 -56 -67 -39 -113 10 -25 62 -47 95 -40 70 16
83 117 18 150 -33 18 -47 18 -74 3z"/>
<path d="M6260 3406 c-159 -34 -252 -136 -267 -289 -18 -193 84 -297 365 -371
239 -64 312 -119 312 -236 0 -60 -17 -97 -61 -134 -51 -43 -98 -58 -200 -63
-74 -4 -108 -2 -146 11 -68 22 -128 69 -159 123 -15 24 -32 42 -38 40 -6 -2
-35 -12 -63 -21 -29 -10 -53 -22 -53 -27 0 -45 102 -159 176 -197 96 -49 242
-70 363 -52 198 28 324 154 324 325 1 87 -28 149 -102 218 -67 63 -146 99
-306 140 -72 19 -149 44 -171 55 -146 75 -138 269 14 340 77 36 200 37 279 3
48 -21 122 -88 148 -136 11 -17 13 -17 65 0 30 9 59 21 63 25 15 14 -25 83
-78 135 -108 108 -286 150 -465 111z"/>
<path d="M7910 2800 l0 -600 64 0 65 0 3 283 c3 270 4 284 26 332 29 63 57 93
107 116 53 25 156 25 210 0 49 -22 68 -43 97 -106 22 -48 23 -63 26 -337 l4
-288 64 0 64 0 0 285 c0 172 -4 305 -11 337 -35 164 -144 251 -314 252 -99 1
-164 -24 -225 -85 l-50 -50 0 231 0 230 -65 0 -65 0 0 -600z"/>
<path d="M11840 2800 l0 -600 355 0 355 0 0 65 0 65 -285 0 -285 0 0 210 0
210 255 0 255 0 0 65 0 65 -255 0 -255 0 0 195 0 195 280 0 280 0 0 65 0 65
-350 0 -350 0 0 -600z"/>
<path d="M8920 3190 l0 -130 -75 0 -75 0 0 -60 0 -60 75 0 75 0 0 -267 c1
-283 6 -336 45 -395 55 -84 225 -121 323 -70 23 12 42 24 42 26 0 2 -10 26
-23 54 l-23 50 -29 -15 c-36 -20 -110 -18 -141 2 -58 37 -59 46 -59 340 l0
270 128 3 127 3 0 59 0 60 -130 0 -130 0 0 130 0 130 -65 0 -65 0 0 -130z"/>
<path d="M13750 3190 l0 -130 -75 0 -75 0 0 -60 0 -60 75 0 75 0 0 -273 c0
-315 6 -353 69 -416 66 -66 212 -87 299 -42 23 12 42 24 42 27 0 2 -11 27 -25
54 l-25 50 -26 -16 c-34 -23 -110 -21 -143 3 -57 42 -61 64 -61 351 l0 262
130 0 130 0 0 60 0 60 -130 0 -130 0 0 130 0 130 -65 0 -65 0 0 -130z"/>
<path d="M7240 3066 c-65 -14 -107 -35 -154 -77 -34 -29 -82 -97 -75 -103 2
-2 29 -13 60 -24 l55 -20 20 30 c44 68 160 103 254 78 78 -21 124 -85 145
-202 l7 -36 -179 -4 c-153 -4 -186 -7 -234 -26 -59 -23 -105 -65 -135 -122
-28 -53 -26 -181 3 -237 48 -90 147 -137 289 -137 68 0 89 4 137 28 31 15 70
43 85 62 29 35 29 35 36 12 3 -13 6 -38 6 -55 l0 -33 61 0 61 0 -4 308 c-4
294 -5 309 -27 366 -27 67 -88 139 -141 166 -39 20 -136 40 -184 39 -17 0 -56
-6 -86 -13z m310 -515 c0 -103 -51 -189 -138 -228 -47 -22 -64 -25 -129 -21
-79 5 -108 20 -147 72 -26 34 -27 112 -3 150 41 62 85 74 275 75 l142 1 0 -49z"/>
<path d="M9780 3066 c-197 -44 -320 -212 -320 -436 0 -237 135 -406 352 -441
171 -28 355 53 426 188 11 20 8 24 -43 51 l-55 30 -34 -48 c-97 -135 -323
-142 -436 -13 -38 44 -62 100 -76 176 l-6 37 336 0 336 0 0 53 c0 109 -51 234
-125 309 -53 54 -109 84 -184 98 -67 12 -101 12 -171 -4z m174 -117 c73 -20
149 -111 163 -195 l6 -34 -262 0 -263 0 7 33 c32 147 195 239 349 196z"/>
<path d="M11173 3070 c-64 -13 -117 -45 -161 -95 l-41 -47 -3 64 -3 63 -62 3
-63 3 0 -431 0 -430 64 0 64 0 4 273 c4 251 6 276 26 328 40 100 113 149 225
149 90 0 142 -29 182 -101 l30 -54 5 -295 5 -295 65 0 65 0 3 235 c1 129 -2
275 -8 325 -17 156 -82 252 -197 292 -48 17 -149 24 -200 13z"/>
<path d="M13031 3070 c-24 -5 -63 -19 -87 -30 -45 -22 -144 -121 -144 -145 0
-7 24 -21 53 -32 l52 -19 45 47 c116 117 314 79 365 -70 8 -24 15 -59 15 -77
l0 -32 -179 -3 -178 -4 -69 -35 c-92 -47 -127 -101 -132 -206 -5 -90 9 -135
60 -190 56 -61 127 -86 243 -87 107 -1 159 18 220 82 l40 42 5 -53 5 -53 60 0
60 0 3 250 c1 143 -2 280 -8 320 -22 143 -95 245 -198 279 -60 20 -174 28
-231 16z m305 -531 c-16 -153 -104 -239 -246 -239 -127 0 -195 57 -187 158 3
43 10 59 34 83 48 48 91 58 257 59 l149 0 -7 -61z"/>
<path d="M14547 3070 c-104 -19 -181 -79 -206 -159 -27 -92 -4 -181 60 -235
47 -40 95 -62 207 -95 116 -34 136 -44 174 -79 58 -54 42 -134 -35 -174 -32
-17 -60 -22 -117 -22 -89 -1 -139 21 -193 84 l-35 41 -56 -25 c-53 -24 -56
-27 -45 -47 23 -45 90 -106 142 -132 175 -85 409 -39 477 94 85 165 -20 319
-258 379 -101 25 -152 50 -182 87 -28 36 -22 85 15 124 73 75 266 57 321 -30
l19 -30 57 26 c57 25 57 26 43 52 -55 107 -229 170 -388 141z"/>
<path d="M10450 2630 l0 -430 65 0 65 0 0 430 0 430 -65 0 -65 0 0 -430z"/>
<path d="M5942 2024 c-12 -8 -22 -24 -22 -34 0 -10 10 -26 22 -34 20 -14 464
-16 4503 -16 4039 0 4483 2 4503 16 12 8 22 24 22 34 0 10 -10 26 -22 34 -20
14 -464 16 -4503 16 -4039 0 -4483 -2 -4503 -16z"/>
<path d="M6136 1785 c-70 -25 -135 -109 -136 -176 0 -27 -16 -39 -51 -39 -14
0 -19 -7 -19 -25 0 -22 4 -25 35 -25 l35 0 0 -210 0 -210 -27 -6 c-49 -10 -53
-13 -53 -34 0 -19 6 -20 135 -20 127 0 135 1 135 19 0 20 -9 25 -72 36 l-38 6
0 209 0 210 64 0 c49 0 65 4 70 16 15 39 8 44 -64 44 l-70 0 0 64 c0 49 4 65
16 70 23 9 74 7 112 -3 27 -8 34 -7 47 12 19 28 19 33 -5 57 -23 23 -59 25
-114 5z"/>
<path d="M7710 1794 c-8 -1 -36 -6 -62 -9 -37 -5 -48 -10 -48 -24 0 -12 14
-22 48 -32 l47 -14 3 -84 c3 -77 1 -83 -15 -76 -79 33 -98 37 -149 25 -60 -13
-125 -64 -154 -120 -44 -86 -49 -229 -11 -315 48 -109 192 -146 292 -74 32 22
49 18 49 -12 0 -22 3 -23 87 -8 50 9 63 15 63 29 0 13 -11 20 -40 25 l-40 7 0
338 c0 377 3 360 -70 344z m-35 -284 l25 -10 -2 -182 -3 -183 -27 -13 c-48
-23 -119 -25 -158 -5 -54 28 -73 77 -73 187 0 158 41 216 155 216 31 0 68 -4
83 -10z"/>
<path d="M6439 1577 c-120 -34 -186 -149 -177 -306 4 -56 12 -90 31 -128 79
-154 325 -144 407 16 55 108 43 288 -23 359 -53 57 -155 82 -238 59z m127 -62
c54 -23 74 -76 74 -205 0 -160 -38 -220 -137 -220 -94 0 -141 60 -150 187 -7
103 10 182 45 216 41 39 107 48 168 22z"/>
<path d="M6995 1581 c-76 -19 -130 -67 -167 -146 -18 -40 -23 -68 -23 -135 0
-101 15 -149 62 -201 89 -98 277 -84 353 26 62 89 76 239 32 338 -42 94 -150
144 -257 118z m130 -75 c44 -29 58 -78 58 -196 0 -75 -4 -116 -16 -142 -45
-105 -203 -104 -250 1 -17 37 -21 65 -21 147 1 120 19 169 74 197 42 22 116
18 155 -7z"/>
</g>
</svg>
